:FULLY-SPECIFIED
:FORCE-ALL-JOINTS-BE-3DOF
:DEGREES
951
root 1.09561 15.2474 32.7457 6.96644 -3.70272 4.80703
lfemur 7.48572 1.51797 4.10022
ltibia -0.183177 0 0
lfoot -29.9842 -12.3605 0.42883
ltoes -34.48 0 0
rfemur -32.4806 -16.6536 -7.15187
rtibia 49.7597 -0 0
rfoot -22.0795 5.26916 0.150115
rtoes -42.1823 0 0
lowerback -2.15446 -0.405105 0.881118
upperback -1.46717 -0.568785 -6.83933
thorax -0.384479 -0.328605 -7.64265
lowerneck -6.57013 0.702239 4.76302
upperneck 0.745946 0.470696 3.20065
head 1.32871 0.321416 0.210112
lclavicle -6.02717e-15 -2.54794e-14 -5.02851e-30
lhumerus -59.5059 -44.2249 113.267
lradius 55.3279 -0 0
lwrist 25.6298 0 0
lhand 39.7478 24.5132 -0.00917593
lfingers 7.12502 -0 0
lthumb 62.1868 35.7776 -0.00654074
rclavicle -6.02717e-15 -2.54794e-14 -5.02851e-30
rhumerus 4.00558 -41.4043 0.89662
rradius 23.1436 -0 0
rwrist -16.6617 0 0
rhand -42.9225 -52.182 -1.52794
rfingers 7.12502 -0 0
rthumb -15.6707 -82.2658 -1.73028
952
root 1.08386 15.2353 32.739 6.94425 -3.8883 4.7726
lfemur 7.63878 1.676 4.18296
ltibia -0.229889 0 0
lfoot -30.1508 -12.1155 0.456434
ltoes -34.7571 0 0
rfemur -32.7113 -16.7602 -7.03075
rtibia 49.9731 -0 0
rfoot -22.3146 5.47742 0.160378
rtoes -42.069 0 0
lowerback -2.11605 -0.413686 0.900308
upperback -1.44782 -0.580786 -6.79663
thorax -0.387219 -0.334386 -7.60758
lowerneck -6.54246 0.759676 4.85787
upperneck 0.672495 0.544649 3.1937
head 1.30054 0.356213 0.194099
lclavicle -3.71003e-15 -2.0961e-14 -6.07137e-30
lhumerus -59.4881 -44.2282 113.377
lradius 55.2723 -0 0
lwrist 25.6466 0 0
lhand 39.5867 24.5257 -0.0101813
lfingers 7.12502 -0 0
lthumb 62.0523 35.9566 -0.00791968
rclavicle -3.71003e-15 -2.0961e-14 -6.07137e-30
rhumerus 4.07729 -41.2869 1.28498
rradius 22.7885 -0 0
rwrist -16.5173 0 0
rhand -42.7268 -52.1591 -1.59685
rfingers 7.12502 -0 0
rthumb -15.4748 -82.2869 -1.81116
953
root 1.0741 15.224 32.7317 6.91373 -4.06608 4.73627
lfemur 7.77927 1.82368 4.26666
ltibia -0.259207 0 0
lfoot -30.2701 -11.9429 0.467205
ltoes -34.9261 0 0
rfemur -32.9249 -16.837 -6.9157
rtibia 50.1745 -0 0
rfoot -22.5061 5.66534 0.164812
rtoes -41.9596 0 0
lowerback -2.07794 -0.422923 0.911324
upperback -1.42699 -0.593399 -6.75207
thorax -0.388237 -0.340325 -7.5658
lowerneck -6.51449 0.813126 4.94699
upperneck 0.602849 0.613551 3.19355
head 1.27393 0.388588 0.181032
lclavicle -1.23223e-15 -1.60794e-14 -6.96566e-30
lhumerus -59.4512 -44.2172 113.473
lradius 55.2195 -0 0
lwrist 25.6446 0 0
lhand 39.4263 24.5469 -0.0108644
lfingers 7.12502 -0 0
lthumb 61.9181 36.1413 -0.00914304
rclavicle -1.23223e-15 -1.60794e-14 -6.96566e-30
rhumerus 4.14352 -40.8765 1.56767
rradius 22.6532 -0 0
rwrist -16.3339 0 0
rhand -42.3529 -52.0382 -1.6033
rfingers 7.12502 -0 0
rthumb -15.1118 -82.1939 -1.82164
954
root 1.06614 15.2135 32.724 6.87589 -4.23589 4.69846
lfemur 7.90804 1.96125 4.35073
ltibia -0.273197 0 0
lfoot -30.3476 -11.8341 0.462881
ltoes -35.0002 0 0
rfemur -33.122 -16.887 -6.8068
rtibia 50.3642 -0 0
rfoot -22.6585 5.83413 0.163936
rtoes -41.8543 0 0
lowerback -2.04025 -0.43264 0.915131
upperback -1.4049 -0.606427 -6.70603
thorax -0.387667 -0.346337 -7.51827
lowerneck -6.48653 0.862799 5.03067
upperneck 0.537159 0.677653 3.19932
head 1.24892 0.41867 0.170595
lclavicle 1.36375e-15 -1.09166e-14 -7.65884e-30
lhumerus -59.3978 -44.1942 113.558
lradius 55.1697 -0 0
lwrist 25.6263 0 0
lhand 39.2675 24.5756 -0.0112219
lfingers 7.12502 -0 0
lthumb 61.7849 36.3301 -0.010157
rclavicle 1.36375e-15 -1.09166e-14 -7.65884e-30
rhumerus 4.20563 -40.212 1.75593
rradius 22.7104 -0 0
rwrist -16.1169 0 0
rhand -41.825 -51.8313 -1.55654
rfingers 7.12502 -0 0
rthumb -14.6046 -82.0007 -1.7719
955
root 1.05981 15.2038 32.7159 6.83174 -4.39761 4.65959
lfemur 8.02593 2.08898 4.43459
ltibia -0.273925 0 0
lfoot -30.3888 -11.7808 0.445406
ltoes -34.9923 0 0
rfemur -33.3031 -16.9135 -6.70406
rtibia 50.5423 -0 0
rfoot -22.7763 5.98497 0.158344
rtoes -41.7536 0 0
lowerback -2.0031 -0.442663 0.912694
upperback -1.38173 -0.619674 -6.6589
thorax -0.385642 -0.352342 -7.46599
lowerneck -6.45889 0.908905 5.1092
upperneck 0.475571 0.737201 3.21015
head 1.22556 0.446586 0.162474
lclavicle 4.03544e-15 -5.55434e-15 -8.11129e-30
lhumerus -59.3303 -44.1614 113.634
lradius 55.1226 -0 0
lwrist 25.594 0 0
lhand 39.1106 24.6102 -0.0112589
lfingers 7.12502 -0 0
lthumb 61.6532 36.5211 -0.0109195
rclavicle 4.03544e-15 -5.55434e-15 -8.11129e-30
rhumerus 4.26333 -39.3324 1.86206
rradius 22.9324 -0 0
rwrist -15.8719 0 0
rhand -41.1673 -51.5502 -1.4662
rfingers 7.12502 -0 0
rthumb -13.9758 -81.721 -1.67259
